<?xml version="1.0" encoding="utf-8"?>
<!-- Generator: Adobe Illustrator 25.4.1, SVG Export Plug-In . SVG Version: 6.00 Build 0)  -->
<svg version="1.1" id="Layer_1" xmlns="http://www.w3.org/2000/svg" xmlns:xlink="http://www.w3.org/1999/xlink" x="0px" y="0px"
	 viewBox="0 0 441.7 506.8" style="enable-background:new 0 0 441.7 506.8;" xml:space="preserve">
<style type="text/css">
	.st0{fill:#ED4445;}
	.st1{fill:#131952;}
</style>
<g>
	<rect x="3" y="468.5" class="st0" width="436.2" height="36.4"/>
	<g>
		<path class="st1" d="M120.4,419.8c-36.8-19.1-65.5-45.5-86.2-79.4c-20.7-33.8-31-72.2-31-115.2c0-43,10.3-81.4,31-115.2
			c20.7-33.8,49.4-60.3,86.2-79.4C157.2,11.5,198.7,2,244.9,2c45.6,0,85.5,9.5,119.6,28.6c34.1,19.1,58.9,46.3,74.5,81.8l-97.5,52.4
			c-22.6-39.7-55.1-59.6-97.5-59.6c-32.8,0-59.9,10.8-81.4,32.2c-21.5,21.5-32.2,50.8-32.2,87.8s10.7,66.3,32.2,87.8
			c21.5,21.5,48.6,32.2,81.4,32.2c43,0,75.5-19.9,97.5-59.6l97.5,53.2c-15.6,34.4-40.4,61.2-74.5,80.6c-34.1,19.3-74,29-119.6,29
			C198.7,448.4,157.2,438.8,120.4,419.8z"/>
	</g>
</g>
</svg>
